<?xml version="1.0" encoding="UTF-8" standalone="no"?>
<!-- Created with Inkscape (http://www.inkscape.org/) -->

<svg
   version="1.1"
   id="svg1"
   width="1139"
   height="489"
   viewBox="0 0 1139 489"
   sodipodi:docname="Keren&amp;CarlMask.svg"
   inkscape:version="1.3.2 (091e20e, 2023-11-25, custom)"
   xmlns:inkscape="http://www.inkscape.org/namespaces/inkscape"
   xmlns:sodipodi="http://sodipodi.sourceforge.net/DTD/sodipodi-0.dtd"
   xmlns="http://www.w3.org/2000/svg"
   xmlns:svg="http://www.w3.org/2000/svg">
  <defs
     id="defs1" />
  <sodipodi:namedview
     id="namedview1"
     pagecolor="#ffffff"
     bordercolor="#000000"
     borderopacity="0.25"
     inkscape:showpageshadow="2"
     inkscape:pageopacity="0.0"
     inkscape:pagecheckerboard="0"
     inkscape:deskcolor="#d1d1d1"
     inkscape:zoom="0.78595012"
     inkscape:cx="492.39766"
     inkscape:cy="145.68355"
     inkscape:window-width="1920"
     inkscape:window-height="1009"
     inkscape:window-x="-8"
     inkscape:window-y="-8"
     inkscape:window-maximized="1"
     inkscape:current-layer="g1" />
  <g
     inkscape:groupmode="layer"
     inkscape:label="Image"
     id="g1">
    <path
       style="fill:#e0d7c8;fill-opacity:1"
       d="M 0,244.5 V 0 H 569.5 1139 V 244.5 489 H 569.5 0 Z m 104.74638,234.53699 c 19.03971,-1.57523 32.70165,-6.3752 46.47422,-16.32819 l 7.72061,-5.57943 9.18073,9.94935 9.18074,9.94935 31.09866,-0.26404 L 239.5,476.5 v -9.96388 -9.96388 l -9,-1.11459 c -13.02834,-1.61347 -12.63239,-1.35084 -31.81924,-21.10554 l -13.74121,-14.14788 2.91446,-7.35212 c 1.60294,-4.04366 4.81512,-13.42711 7.13816,-20.85211 3.79224,-12.1209 4.65535,-13.91611 8.44895,-17.57333 4.77747,-4.60571 9.51477,-6.27144 20.66685,-7.26686 L 231.5,366.5 v -10 -10 H 197 162.5 l -0.66791,21 c -0.36736,11.55 -1.05275,22.01375 -1.5231,23.25277 -0.78437,2.06623 -2.33305,0.71684 -18.70275,-16.296 -9.81616,-10.20183 -17.68077,-18.68273 -17.4769,-18.84645 0.20386,-0.16371 4.87066,-2.9162 10.37066,-6.11664 11.6,-6.75001 22.90771,-17.3889 26.3218,-24.76494 5.24209,-11.32539 5.65603,-28.72624 0.92767,-38.99699 -3.75036,-8.1464 -11.98462,-16.05616 -20.99919,-20.17166 -11.4692,-5.23614 -16.33249,-6.06554 -35.25028,-6.01174 -14.53181,0.0413 -18.156403,0.37612 -24.964888,2.30589 -11.108228,3.14848 -18.715028,7.49266 -24.99233,14.27289 -9.157769,9.89149 -12.150473,22.39387 -9.585506,40.04461 1.542472,10.61448 5.672564,20.53422 12.874763,30.92287 l 5.695915,8.21595 -11.513977,5.7917 c -16.840478,8.471 -25.474408,16.35256 -31.17074,28.4545 -3.524013,7.48681 -5.263166,19.86065 -4.382229,31.17898 1.343238,17.258 6.038454,27.98411 17.087842,39.03677 11.521431,11.52483 26.197288,17.41493 47.818988,19.19194 5.022689,0.4128 9.582162,0.80735 10.132162,0.87677 0.55,0.0694 6.060872,-0.29247 12.24638,-0.80423 z m -9.014877,-25.08553 c -11.214985,-1.86024 -20.726807,-9.44577 -26.020257,-20.75075 -2.626963,-5.61028 -3.203132,-8.19444 -3.540571,-15.87972 -0.707698,-16.11808 3.570182,-28.92492 12.560379,-37.60245 l 3.917715,-3.78147 29.175611,30.99567 C 127.87097,423.98036 141,438.35619 141,438.87904 c 0,1.22556 -8.26732,7.24742 -13.75145,10.01645 -8.33836,4.21019 -22.71342,6.51624 -31.517047,5.05597 z m 7.578127,-120.42171 c -4.526917,-5.65997 -10.255782,-15.63139 -11.485763,-19.99164 -2.057183,-7.29265 -1.534904,-16.68141 1.226445,-22.04724 3.63212,-7.0579 6.757444,-8.99477 14.477828,-8.97241 11.05647,0.032 15.66661,5.7464 16.30981,20.21642 0.64471,14.50399 -4.9382,26.88844 -14.66742,32.53643 l -3.05126,1.77131 z M 457.5,477.89777 c 27.55906,-3.87132 45.81729,-19.61602 45.8291,-39.52001 0.005,-8.75291 -2.35121,-13.69485 -6.77481,-14.20835 -2.3981,-0.27837 -4.04881,0.85805 -10.4511,7.19502 -12.57751,12.44917 -23.70492,17.8089 -39.68991,19.1174 -10.38159,0.84982 -22.66891,-1.34852 -31.30744,-5.60126 C 400.21662,437.55063 392.00581,423.96829 387.37009,399 c -2.11907,-11.41348 -2.44563,-47.77904 -0.54327,-60.5 2.99294,-20.01368 8.48117,-34.53932 16.2236,-42.93887 8.33768,-9.04531 23.9519,-14.22161 35.26335,-11.69022 13.42729,3.0049 20.28515,13.01275 23.38689,34.12909 l 0.80788,5.5 7.49573,-0.27067 c 14.75146,-0.53266 25.7797,0.67593 31.24897,-8.64054 2.46159,-4.19313 2.23438,-12.08026 2.19796,-19.08879 -0.049,-9.42081 -1.89037,-13.72013 -8.61868,-20.12289 -5.98434,-5.6948 -11.84602,-8.82628 -22.02896,-11.76851 -24.3389,-7.03241 -61.5885,-5.70401 -83.48867,2.97739 -18.48349,7.327 -36.54009,23.90604 -45.64949,41.91401 -8.98929,17.77055 -12.66465,35.35744 -12.64344,60.5 0.022,26.07925 3.5695,43.98452 11.99212,60.52765 15.98844,31.40339 42.96755,47.69618 82.48592,49.81358 8.1874,0.43868 23.52739,-0.25328 32,-1.44346 z M 592.5,466.5 v -10 l -8.5,-0.58814 c -4.92213,-0.34058 -9.86191,-1.29532 -11.73551,-2.26819 -5.94066,-3.0847 -5.67639,-7.44544 1.84031,-30.36682 L 579.11459,408 h 33.33572 c 30.81123,0 33.38947,0.13253 34.04552,1.75 3.85083,9.49398 11.49184,33.46305 11.49726,36.06574 0.0151,7.23021 -3.02883,9.28147 -14.98958,10.10136 L 634.5,456.5 v 10 10 h 51 51 v -10 -10 l -6.38088,-0.70372 c -7.84378,-0.86507 -12.99707,-4.0255 -16.60649,-10.18452 -1.42886,-2.43816 -16.74364,-44.32488 -34.03284,-93.08158 C 662.19058,303.77347 647.78322,263.45826 647.46342,262.94081 647.12868,262.3992 637.54826,262 624.88475,262 h -21.99721 l -1.84353,4.25 c -1.01393,2.3375 -15.66107,41.825 -32.54918,87.75 -16.88812,45.925 -31.81689,85.75 -33.17506,88.5 -4.46733,9.0454 -8.64608,12.11459 -18.09599,13.29106 l -5.72378,0.71259 -0.29142,8.91903 c -0.16029,4.90547 -0.0599,9.52226 0.22297,10.25954 0.42059,1.09603 7.8602,1.29285 40.79143,1.07915 L 592.5,476.5 Z m -4.33333,-83.4484 C 588.35,382.52998 594.125,365.2255 601,344.5972 c 6.875,-20.6283 12.73826,-37.52652 13.02947,-37.5516 0.2912,-0.0251 1.82501,4.7919 3.40845,10.7044 2.33659,8.72472 18.16073,59.43457 20.22697,64.81909 0.46734,1.21787 -3.20129,1.43091 -24.64123,1.43091 -15.44751,0 -25.0614,-0.36681 -24.85699,-0.9484 z M 845.5,466.5 v -10 l -9.5,-0.56869 c -17.81957,-1.06673 -17.41656,-0.18047 -17.81542,-39.17812 l -0.31542,-30.83967 7.74425,0.29324 7.74424,0.29324 17.82601,32.91389 c 9.8043,18.10264 19.68183,35.31939 21.95007,38.25946 9.21537,11.94482 19.94081,16.53261 42.86627,18.33597 7.975,0.62733 17.65,0.99436 21.5,0.81564 l 7,-0.32496 v -9.93756 -9.93756 l -5.5,-1.38983 c -8.31012,-2.09993 -12.4419,-5.4963 -20.10846,-16.52942 -6.79674,-9.78134 -37.25543,-63.08433 -36.24119,-63.42241 4.13615,-1.37872 14.8564,-8.93048 20.27602,-14.28322 11.58318,-11.44022 16.33607,-23.65991 16.33607,-42 0,-26.06537 -10.46267,-41.38981 -34.41368,-50.40495 C 869.65516,262.8762 864.90757,262.53612 800,262.51728 L 740.5,262.5 v 10 10 l 9.5,0.5 c 10.78794,0.56779 13.57514,1.73891 15.58466,6.54837 2.06105,4.93279 2.11112,153.872 0.0534,158.73375 -2.51201,5.93497 -4.6944,7.01762 -15.41471,7.64702 L 740.5,456.5 l -0.29142,8.92086 c -0.16029,4.90647 -0.0604,9.52299 0.22204,10.25893 0.42151,1.09843 9.87636,1.2917 52.79142,1.07914 L 845.5,476.5 Z m -24.25,-103.15972 -3.25,-0.467 v -38.87537 -38.87536 l 4.64155,-0.69605 c 6.71703,-1.00728 18.31855,0.21249 24.68823,2.5957 6.79299,2.54158 11.58632,7.60253 14.77221,15.59697 2.07379,5.2038 2.34672,7.55013 2.3708,20.38083 0.022,11.7197 -0.33814,15.5546 -1.87817,20 -3.77351,10.89247 -8.49684,15.96249 -17.35445,18.62824 -4.9647,1.49415 -18.68987,2.47364 -23.99017,1.71204 z M 1124.1176,460 c 0.3397,-9.075 0.7897,-24.825 1,-35 l 0.3824,-18.5 -10.2555,-0.28504 c -12.1216,-0.33691 -10.8054,-1.82214 -14.7751,16.67326 -2.9897,13.92934 -4.9413,19.14229 -8.9496,23.90588 -5.2047,6.18546 -7.0547,6.5273 -37.7869,6.9822 l -27.7671,0.411 0.2671,-82.57119 0.2671,-82.5712 2.7722,-2.77245 c 2.5813,-2.58143 3.477,-2.80691 13,-3.27246 l 10.2278,-0.5 v -10 -10 H 1000 947.5 v 10 10 l 9.5,0.58278 c 10.89019,0.66806 12.20711,1.09399 14.69001,4.75119 1.70086,2.50529 1.82824,7.2785 2.11261,79.16603 0.20054,50.69701 -0.0468,77.70073 -0.73319,80.05989 -1.92386,6.61202 -4.79418,8.22067 -15.82328,8.86804 L 947.5,456.5 l -0.29142,8.92086 c -0.16029,4.90647 -0.061,9.52143 0.22071,10.25546 0.42268,1.10149 15.84508,1.28999 88.29141,1.07915 L 1123.5,476.5 Z M 122.5,225.5 v -10 L 113,214.96839 C 95.62653,213.9962 95.613412,213.96926 95.171725,178.35877 l -0.33664,-27.14123 4.766226,-3.63929 c 3.801099,-2.90235 4.999699,-3.37999 5.919229,-2.35877 0.63415,0.70429 10.10855,16.49835 21.05422,35.09792 11.03026,18.74332 22.01948,36.19404 24.65337,39.1492 10.8341,12.15559 23.28455,15.55509 58.09905,15.86354 L 228.5,235.5 v -9.95493 -9.95494 l -6.41927,-1.29924 c -8.20482,-1.66063 -13.78284,-4.9607 -19.66831,-11.63615 -3.64299,-4.13197 -60.01331,-92.07889 -60.7448,-94.77182 -0.31967,-1.17685 41.78209,-47.176344 48.36287,-52.840244 9.61175,-8.272586 16.66716,-12.02028 24.19187,-12.850254 L 220.5,41.5 v -10 -10 h -42 -42 v 9.449143 9.449144 l 6.17588,1.1169 c 8.36436,1.512683 9.69624,2.753257 8.93313,8.320751 -1.21484,8.863191 -4.62449,13.290379 -37.02681,48.076622 L 96.5,117.32512 95.647787,87.813407 C 94.386609,44.139466 94.852781,42.859233 112.32985,42 L 122.5,41.5 v -10 -10 H 70 17.5 v 10 10 L 27,42 c 10.787945,0.567787 13.575137,1.738911 15.584658,6.548373 2.061052,4.932791 2.111118,153.871997 0.05336,158.733747 -2.512004,5.93497 -4.694401,7.01762 -15.414702,7.64702 L 17.5,215.5 l -0.291425,8.92086 c -0.160283,4.90647 -0.06036,9.52299 0.222044,10.25893 0.421507,1.09843 9.876361,1.2917 52.791424,1.07914 L 122.5,235.5 Z m 285.9805,9.25 c 0.94833,-2.83777 2.2371,-56.30383 1.37935,-57.22404 -0.49935,-0.53571 -6.16205,-0.98571 -12.58376,-1 l -11.67583,-0.026 -2.23098,11.76047 c -2.53554,13.36593 -5.25897,19.19359 -10.36928,22.18841 -3.27362,1.91846 -5.39186,2.07241 -32.75,2.38035 L 311,213.15846 v -39.0661 -39.0661 L 345.25,134.76313 379.5,134.5 v -11 -11 L 345.25,112.23687 311,111.97374 V 77.986872 44 h 24.59887 c 28.31328,0 29.7486,0.32403 34.06564,7.690505 1.93564,3.302923 2.9466,7.150357 3.97293,15.119875 0.75714,5.879291 1.58967,11.266041 1.85007,11.970555 0.35759,0.967454 3.47617,1.212183 12.74298,1 L 400.5,79.5 400.14037,51 c -0.19779,-15.675 -0.67291,-28.840119 -1.05582,-29.255819 -0.3829,-0.4157 -38.02107,-0.6407 -83.64037,-0.5 L 232.5,21.5 v 10 10 l 9.5,0.582781 c 10.89019,0.668063 12.20711,1.093994 14.69001,4.751187 1.70086,2.505287 1.82824,7.278501 2.11261,79.166032 0.20054,50.69701 -0.0467,77.70073 -0.73319,80.05989 -1.92386,6.61202 -4.79418,8.22067 -15.82328,8.86804 L 232.5,215.5 l -0.29142,8.92086 c -0.16029,4.90647 -0.0619,9.51897 0.21861,10.25 0.7307,1.90416 175.41718,1.98269 176.05331,0.0791 z M 528.5,225.5 v -10 l -9.5,-0.56869 c -17.81957,-1.06673 -17.41656,-0.18047 -17.81542,-39.17812 l -0.31542,-30.83967 7.74425,0.29324 7.74424,0.29324 17.82601,32.91389 c 9.8043,18.10264 19.68183,35.31939 21.95007,38.25946 9.21537,11.94482 19.94081,16.53261 42.86627,18.33597 7.975,0.62733 17.65,0.99436 21.5,0.81564 l 7,-0.32496 v -9.93756 -9.93756 l -5.5,-1.38983 c -8.31012,-2.09993 -12.4419,-5.4963 -20.10846,-16.52942 -6.79674,-9.78134 -37.25543,-63.08433 -36.24119,-63.42241 4.13615,-1.37872 14.8564,-8.93048 20.27602,-14.28322 11.58318,-11.44022 16.33607,-23.659908 16.33607,-42 0,-26.065368 -10.46267,-41.389812 -34.41368,-50.404946 C 552.65516,21.876195 547.90757,21.536122 483,21.517276 L 423.5,21.5 v 10 10 L 433,42 c 10.78794,0.567787 13.57514,1.738911 15.58466,6.548373 2.06105,4.932791 2.11112,153.871997 0.0534,158.733747 -2.51201,5.93497 -4.6944,7.01762 -15.41471,7.64702 L 423.5,215.5 l -0.29142,8.92086 c -0.16029,4.90647 -0.0604,9.52299 0.22204,10.25893 0.42151,1.09843 9.87636,1.2917 52.79142,1.07914 L 528.5,235.5 Z M 504.25,122.34028 501,121.87328 V 82.997914 44.122546 l 4.64155,-0.696044 c 6.71703,-1.00728 18.31855,0.212491 24.68823,2.595694 6.79299,2.541585 11.58632,7.602534 14.77221,15.596976 2.07379,5.203801 2.34672,7.550132 2.3708,20.380828 0.022,11.719696 -0.33814,15.554598 -1.87817,20 -3.77351,10.89247 -8.49684,15.96249 -17.35445,18.62824 -4.9647,1.49415 -18.68987,2.47364 -23.99017,1.71204 z M 806.4805,234.75 c 0.94833,-2.83777 2.2371,-56.30383 1.37935,-57.22404 -0.49935,-0.53571 -6.16205,-0.98571 -12.58376,-1 l -11.67583,-0.026 -2.23098,11.76047 c -2.53554,13.36593 -5.25897,19.19359 -10.36928,22.18841 -3.27362,1.91846 -5.39186,2.07241 -32.75,2.38035 L 709,213.15846 v -39.0661 -39.0661 L 743.25,134.76313 777.5,134.5 v -11 -11 L 743.25,112.23687 709,111.97374 V 77.986872 44 h 24.59887 c 28.31328,0 29.7486,0.32403 34.06564,7.690505 1.93564,3.302923 2.9466,7.150357 3.97293,15.119875 0.75714,5.879291 1.58967,11.266041 1.85007,11.970555 0.35759,0.967454 3.47617,1.212183 12.74298,1 L 798.5,79.5 798.14037,51 c -0.19779,-15.675 -0.67291,-28.840119 -1.05582,-29.255819 -0.3829,-0.4157 -38.02107,-0.6407 -83.64037,-0.5 L 630.5,21.5 v 10 10 l 9.5,0.582781 c 10.89019,0.668063 12.20711,1.093994 14.69001,4.751187 1.70086,2.505287 1.82824,7.278501 2.11261,79.166032 0.20054,50.69701 -0.0468,77.70073 -0.73319,80.05989 -1.92386,6.61202 -4.79418,8.22067 -15.82328,8.86804 L 630.5,215.5 l -0.29142,8.92086 c -0.16029,4.90647 -0.0619,9.51897 0.21861,10.25 0.7307,1.90416 175.41718,1.98269 176.05331,0.0791 z M 901.5,225.5 v -10 l -9,-0.53666 c -9.8709,-0.58859 -12.27361,-1.49073 -15.10838,-5.67273 -1.79774,-2.65212 -1.90548,-5.88967 -2.17094,-65.2366 -0.15363,-34.34529 0.0714,-62.097924 0.5,-61.672516 0.42863,0.425408 25.11654,35.051106 54.86203,76.945986 L 984.66541,235.5 H 1000.0827 1015.5 L 1016,143 c 0.3644,-67.413471 0.8139,-93.045446 1.6574,-94.511189 2.9196,-5.073392 5.0781,-5.965958 15.6923,-6.488811 L 1043.5,41.5 v -10 -10 H 1003 962.5 v 10 10 l 9.5,0.54565 c 10.78077,0.619213 12.16614,1.070786 14.69001,4.788318 1.68486,2.481729 1.82646,6.46819 2.04819,57.666032 0.20353,46.99548 0.0369,54.73835 -1.14523,53.20215 -0.76089,-0.98882 -22.917,-32.15702 -49.2358,-69.262677 L 890.50482,20.97465 856.00241,21.237325 821.5,21.5 v 10 10 L 831,42 c 5.225,0.275 10.5506,1.098721 11.83466,1.830491 5.2089,2.968485 5.16577,2.271527 5.15976,83.387389 -0.003,46.74472 -0.38196,76.63702 -0.99848,78.85638 -1.83077,6.59043 -4.70344,8.20529 -15.74979,8.85367 L 821.5,215.5 l -0.29142,8.92086 c -0.16029,4.90647 -0.0599,9.52414 0.22302,10.2615 0.42054,1.09589 7.77622,1.2929 40.29143,1.07914 L 901.5,235.5 Z"
       id="path1"
       inkscape:label="path1"
       sodipodi:nodetypes="cccccccccsscccccccsscsssscccccssssssssssssscssssssssssscsssssssssscsscssssssssscsssssssssssccssscsssscccccccssssscsssscsssccsssssssccsscccsssscccssssssscccsssscsssccscccssssssssscsssscccsscccccccssssscssscsccsscssssscccssssscccccccssscsscccccccsssscsssccssscssscccccccccccssssscssscccssscscssssccsscccsssscccssssssscccsssscsssccscccsssssssssscssscccccccccccssssscssscccssssscssssccssssscccssscccccccssssscccccsscsscssscc" />
  </g>
</svg>
